HIERARCHY
ROOT Hips
{
  OFFSET 49.149 51.7315 -1.40086
  CHANNELS 6 Xposition Yposition Zposition Zrotation Xrotation Yrotation
  JOINT spine
  {
    OFFSET 0 8.30104 0.477351
    CHANNELS 3 Zrotation Xrotation Yrotation
    JOINT spine1
    {
      OFFSET 0 10.4565 0
      CHANNELS 3 Zrotation Xrotation Yrotation
      JOINT spine2
      {
        OFFSET 0 10.0192 0
        CHANNELS 3 Zrotation Xrotation Yrotation
        JOINT Neck
        {
          OFFSET 0 25.7235 1.22641
          CHANNELS 3 Zrotation Xrotation Yrotation
          JOINT Head
          {
            OFFSET 0 7.77175 0
            CHANNELS 3 Zrotation Xrotation Yrotation
            End Site
            {
              OFFSET 0 18.812 -6.20394
            }
          }
        }
        JOINT RightShoulder
        {
          OFFSET -4.2188 10.82 -0.587439
          CHANNELS 3 Zrotation Xrotation Yrotation
          JOINT RightArm
          {
            OFFSET 0 14.1914 0
            CHANNELS 3 Zrotation Xrotation Yrotation
            JOINT RightArmRoll
            {
              OFFSET 0 7.16408 0
              CHANNELS 3 Zrotation Xrotation Yrotation
              JOINT RightForeArm
              {
                OFFSET 0 20.8665 0
                CHANNELS 3 Zrotation Xrotation Yrotation
                JOINT RightForeArmRoll
                {
                  OFFSET 0 8.03921 0
                  CHANNELS 3 Zrotation Xrotation Yrotation
                  JOINT RightHand
                  {
                    OFFSET 0 16.133 0
                    CHANNELS 3 Zrotation Xrotation Yrotation
                    End Site
                    {
                      OFFSET 0 0 0
                    }
                  }
                }
              }
            }
          }
        }
        JOINT LeftShoulder
        {
          OFFSET 4.2188 10.82 -0.587439
          CHANNELS 3 Zrotation Xrotation Yrotation
          JOINT LeftArm
          {
            OFFSET 0 14.1914 0
            CHANNELS 3 Zrotation Xrotation Yrotation
            JOINT LeftArmRoll
            {
              OFFSET 0 7.16408 0
              CHANNELS 3 Zrotation Xrotation Yrotation
              JOINT LeftForeArm
              {
                OFFSET 0 20.8665 0
                CHANNELS 3 Zrotation Xrotation Yrotation
                JOINT LeftForeArmRoll
                {
                  OFFSET 0 8.03921 0
                  CHANNELS 3 Zrotation Xrotation Yrotation
                  JOINT LeftHand
                  {
                    OFFSET 0 16.133 0
                    CHANNELS 3 Zrotation Xrotation Yrotation
                    End Site
                    {
                      OFFSET 0 0 0
                    }
                  }
                }
              }
            }
          }
        }
      }
    }
  }
  JOINT RightUpLeg
  {
    OFFSET -7.35773 -1.34921 -1.13182
    CHANNELS 3 Zrotation Xrotation Yrotation
    JOINT RightUpLegRoll
    {
      OFFSET 0 18.9168 0
      CHANNELS 3 Zrotation Xrotation Yrotation
      JOINT RightLeg
      {
        OFFSET 0 -23.4256 0
        CHANNELS 3 Zrotation Xrotation Yrotation
        JOINT RightLegRoll
        {
          OFFSET 0 23.5023 0
          CHANNELS 3 Zrotation Xrotation Yrotation
          JOINT RightFoot
          {
            OFFSET 0 19.5617 0
            CHANNELS 3 Zrotation Xrotation Yrotation
            JOINT RightToeBase
            {
              OFFSET 0 16.3526 0
              CHANNELS 3 Zrotation Xrotation Yrotation
              End Site
              {
                OFFSET 0.00693125 7.91944 -0.912836
              }
            }
          }
        }
      }
    }
  }
  JOINT LeftUpLeg
  {
    OFFSET 7.35773 -1.34921 -1.13182
    CHANNELS 3 Zrotation Xrotation Yrotation
    JOINT LeftUpLegRoll
    {
      OFFSET 0 18.9169 0
      CHANNELS 3 Zrotation Xrotation Yrotation
      JOINT LeftLeg
      {
        OFFSET 0 23.4255 0
        CHANNELS 3 Zrotation Xrotation Yrotation
        JOINT LeftLegRoll
        {
          OFFSET 0 23.7195 0
          CHANNELS 3 Zrotation Xrotation Yrotation
          JOINT LeftFoot
          {
            OFFSET 0 19.3444 0
            CHANNELS 3 Zrotation Xrotation Yrotation
            JOINT LeftToeBase
            {
              OFFSET 0 16.3526 0
              CHANNELS 3 Zrotation Xrotation Yrotation
              End Site
              {
                OFFSET -0.0310629 7.91944 -0.912837
              }
            }
          }
        }
      }
    }
  }
}
MOTION
Frames: 8
Frame Time: 0.00208333
48.6347 51.8516 -0.229032 -0.692335 -12.082 -0.286944 0.676025 3.51119 0.0809644 1.36921 11.0228 0.0413785 1.37375 12.6676 0.0179662 -5.2447 1.72387 -0.429752 1.75237 -7.62891 -1.03012 59.1443 -4.37454 -2.73422 113.77 35.6758 16.4073 -3.18055e-015 0 3.18055e-015 1.17751 12.4053 0.717353 -1.50592e-006 4.99958e-007 -3.00937 8.02908 -4.95145 0.697679 -61.7183 -1.25994 1.1023 -106.317 28.239 -9.53274 -8.54774e-015 -3.18055e-015 -4.77083e-015 -6.91191 15.2546 1.8548 5.2743e-006 2.66363e-006 3.00737 -8.02898 -4.95146 -0.697688 117.137 71.862 70.8279 180 7.01373e-015 178.329 -19.2621 78.219 21.0813 -1.49666e-006 -1.14852e-006 2.29619 -27.7564 71.0526 23.0587 8.12729 25.2418 -3.48035 -111.915 71.369 -73.7505 4.54188e-006 -4.6773e-006 -1.49048 158.053 -73.7367 153.239 -2.08891e-006 -4.47415e-006 -2.65501 24.1767 71.6888 -23.4335 -8.29479 27.6717 3.56043 
48.6444 51.8456 -0.250688 -0.674637 -12.1802 -0.270406 0.675545 3.51301 0.0816761 1.36871 11.0267 0.0409172 1.37322 12.6716 0.0175117 -5.24405 1.75987 -0.436581 1.75504 -7.58741 -1.03877 59.13 -4.38992 -2.74265 113.804 35.6208 16.4358 -1.11319e-014 9.54166e-015 -6.36111e-015 1.17145 12.3362 0.720746 -1.50592e-006 4.99958e-007 -3.00937 8.02908 -4.95145 0.697679 -61.7246 -1.24729 1.09562 -106.353 28.1661 -9.54475 9.54166e-015 1.59028e-015 -0 -6.92114 15.1999 1.85184 5.2743e-006 2.66363e-006 3.00737 -8.02898 -4.95146 -0.697688 117.304 71.8041 70.6419 180 7.01372e-015 178.327 -19.3229 78.218 21.153 -1.49666e-006 -1.14852e-006 2.29609 -27.7418 71.0359 23.0371 8.12729 25.2418 -3.48035 -112.202 71.3673 -73.4689 4.54188e-006 -4.6773e-006 -1.49275 158.025 -73.7412 153.208 -2.08891e-006 -4.47415e-006 -2.65398 24.1513 71.6661 -23.4059 -8.29501 27.6746 3.56067 
48.6483 51.8401 -0.271832 -0.657007 -12.2783 -0.254008 0.675028 3.51493 0.0824039 1.36814 11.0309 0.0404615 1.37263 12.6757 0.0170642 -5.24334 1.79563 -0.443467 1.75733 -7.54559 -1.04752 59.1158 -4.40516 -2.75102 113.838 35.567 16.4638 -8.74653e-015 0 3.18055e-015 1.16519 12.2658 0.724205 -1.50592e-006 4.99958e-007 -3.00937 8.02908 -4.95145 0.697679 -61.7308 -1.23504 1.08917 -106.389 28.0944 -9.55619 9.93923e-015 4.77083e-015 -0 -6.93074 15.1435 1.84877 5.2743e-006 2.66363e-006 3.00737 -8.02898 -4.95146 -0.697688 117.47 71.7462 70.457 180 7.01371e-015 178.324 -19.3835 78.217 21.2244 -1.49666e-006 -1.14852e-006 2.29598 -27.7271 71.0192 23.0154 8.12729 25.2418 -3.48035 -112.488 71.3649 -73.1874 4.54188e-006 -4.6773e-006 -1.49503 157.997 -73.7457 153.178 -2.08891e-006 -4.47415e-006 -2.65297 24.1271 71.6441 -23.3793 -8.29519 27.677 3.56086 
48.6547 51.831 -0.27925 -0.639499 -12.3763 -0.23784 0.674482 3.51692 0.0831404 1.36751 11.0352 0.0400465 1.37197 12.68 0.0166585 -5.24259 1.83146 -0.450433 1.75917 -7.50376 -1.05642 59.102 -4.42016 -2.75925 113.871 35.5145 16.4915 -1.11319e-014 3.18055e-015 -3.18055e-015 1.15873 12.1941 0.727705 -1.50592e-006 4.99958e-007 -3.00936 8.02908 -4.95145 0.697679 -61.7371 -1.22299 1.08286 -106.424 28.0239 -9.56749 -1.35174e-014 1.59028e-015 -6.36111e-015 -6.94044 15.0855 1.84557 5.2743e-006 2.66363e-006 3.00737 -8.02898 -4.95146 -0.697688 117.636 71.6883 70.273 180 7.0137e-015 178.322 -19.4437 78.2161 21.2953 -1.49666e-006 -1.14852e-006 2.29585 -27.7121 71.0024 22.9936 8.12729 25.2418 -3.48035 -112.774 71.3617 -72.9063 4.54188e-006 -4.6773e-006 -1.49732 157.97 -73.7502 153.148 -2.08891e-006 -4.47415e-006 -2.65197 24.104 71.6229 -23.3538 -8.29533 27.6788 3.56101 
48.6594 51.8264 -0.301081 -0.62217 -12.474 -0.22199 0.673917 3.51897 0.0838785 1.36682 11.0395 0.0397069 1.37126 12.6844 0.0163298 -5.24181 1.86769 -0.457501 1.76051 -7.46222 -1.06551 59.0885 -4.43479 -2.7673 113.904 35.4631 16.5189 9.54166e-015 6.36111e-015 9.54166e-015 1.15205 12.1212 0.731224 -1.50592e-006 4.99958e-007 -3.00936 8.02908 -4.95145 0.697679 -61.7436 -1.21095 1.07658 -106.458 27.9544 -9.57911 1.23246e-014 4.77083e-015 -0 -6.94997 15.0262 1.8422 5.2743e-006 2.66363e-006 3.00737 -8.02898 -4.95146 -0.697688 117.8 71.6307 70.0901 180 7.01369e-015 178.319 -19.5032 78.2154 21.3653 -1.49666e-006 -1.14852e-006 2.29569 -27.6968 70.9855 22.9716 8.12729 25.2418 -3.48035 -113.059 71.3575 -72.6259 4.54188e-006 -4.6773e-006 -1.49962 157.944 -73.7545 153.119 -2.08891e-006 -4.47415e-006 -2.65098 24.0823 71.6026 -23.3294 -8.29543 27.6802 3.5611 
48.6652 51.8221 -0.323022 -0.605079 -12.5714 -0.206546 0.673342 3.52105 0.0846109 1.36607 11.044 0.0394779 1.37049 12.6888 0.016113 -5.241 1.90463 -0.464694 1.76132 -7.42127 -1.07484 59.0755 -4.44894 -2.77508 113.937 35.4129 16.5462 7.15625e-015 0 6.36111e-015 1.14514 12.047 0.734737 -1.50592e-006 4.99958e-007 -3.00936 8.02908 -4.95145 0.697679 -61.7507 -1.1987 1.07024 -106.49 27.8858 -9.59147 4.77083e-015 6.36111e-015 -1.59028e-015 -6.95907 14.9658 1.83864 5.2743e-006 2.66363e-006 3.00737 -8.02898 -4.95146 -0.697688 117.963 71.5734 69.9081 180 7.01368e-015 178.317 -19.5618 78.215 21.4342 -1.49666e-006 -1.14852e-006 2.2955 -27.6811 70.9683 22.9493 8.12729 25.2418 -3.48035 -113.343 71.3525 -72.3466 4.54188e-006 -4.6773e-006 -1.50191 157.919 -73.7587 153.091 -2.08891e-006 -4.47415e-006 -2.64999 24.0619 71.5833 -23.3064 -8.29549 27.6809 3.56113 
48.6679 51.8136 -0.339769 -0.588283 -12.6685 -0.191599 0.672764 3.52316 0.0853305 1.36527 11.0485 0.0393944 1.36967 12.6933 0.0160431 -5.24018 1.94261 -0.472037 1.76153 -7.38122 -1.08443 59.063 -4.46248 -2.78253 113.968 35.3638 16.5733 -2.54444e-014 6.36111e-015 -6.36111e-015 1.13798 11.9718 0.738222 -1.50592e-006 4.99958e-007 -3.00935 8.02908 -4.95145 0.697679 -61.7584 -1.18604 1.06374 -106.522 27.8181 -9.60502 4.17448e-015 3.18055e-015 -3.18055e-015 -6.96745 14.9045 1.83485 5.2743e-006 2.66363e-006 3.00737 -8.02898 -4.95146 -0.697688 118.125 71.5167 69.7271 180 7.01368e-015 178.315 -19.6194 78.2148 21.5018 -1.49666e-006 -1.14852e-006 2.29528 -27.665 70.9508 22.9267 8.12729 25.2418 -3.48035 -113.626 71.3463 -72.0687 4.54188e-006 -4.6773e-006 -1.50419 157.895 -73.7627 153.065 -2.08891e-006 -4.47415e-006 -2.649 24.0431 71.5652 -23.2848 -8.2955 27.681 3.56109 
48.6666 51.7961 -0.331148 -0.571842 -12.7651 -0.177237 0.672194 3.52527 0.0860298 1.36443 11.0529 0.0394913 1.3688 12.6978 0.016155 -5.23936 1.98195 -0.479551 1.7611 -7.34237 -1.09434 59.0511 -4.47531 -2.78958 113.999 35.3159 16.6005 2.38542e-015 3.18055e-015 6.36111e-015 1.13056 11.8956 0.741655 -1.50592e-006 4.99958e-007 -3.00935 8.02908 -4.95145 0.697679 -61.767 -1.17277 1.05698 -106.552 27.7511 -9.62018 1.19271e-015 3.18055e-015 -4.77083e-015 -6.97486 14.8425 1.83081 5.2743e-006 2.66363e-006 3.00737 -8.02898 -4.95146 -0.697688 118.286 71.4606 69.5471 180 7.01367e-015 178.313 -19.6756 78.2151 21.5677 -1.49666e-006 -1.14852e-006 2.29501 -27.6484 70.9329 22.9036 8.12729 25.2418 -3.48035 -113.906 71.3391 -71.7926 4.54188e-006 -4.6773e-006 -1.50647 157.873 -73.7665 153.039 -2.08891e-006 -4.47415e-006 -2.64799 24.0259 71.5483 -23.2647 -8.29545 27.6804 3.56099 
